<svg xmlns="http://www.w3.org/2000/svg" width="188" height="184" fill="none" viewBox="0 0 188 184"><path fill="#337BF0" d="M39.3128 0.00881397C39.9898 0.00709281 40.6667 0.00537164 41.3642 0.00359833C43.6156 -0.000738172 45.8668 0.00221361 48.1182 0.005396C49.7121 0.00425367 51.306 0.00277698 52.8999 0.000986208C57.1676 -0.0020251 61.4353 0.00220128 65.703 0.00903141C68.3432 0.0131999 70.9833 0.0161624 73.6235 0.0189153C114.358 0.0670966 114.358 0.0670967 134.299 0.402674C136.229 0.434368 138.159 0.461604 140.088 0.484095C154.559 0.664791 166.088 1.74213 177.29 11.6968C183.871 18.5748 186.62 28.7097 186.697 38.0669C186.712 39.517 186.712 39.517 186.727 40.9964C186.733 42.0458 186.739 43.0951 186.745 44.1763C186.755 45.2909 186.764 46.4055 186.775 47.5538C186.804 51.2434 186.826 54.9329 186.845 58.6226C186.851 59.8876 186.858 61.1526 186.865 62.4559C186.891 67.7815 186.914 73.1071 186.929 78.4328C186.951 86.0198 186.993 93.6061 187.063 101.193C187.116 107.2 187.136 113.207 187.144 119.215C187.153 121.752 187.172 124.289 187.201 126.826C187.378 142.857 187.368 158.52 177.286 171.888C167.665 181.32 153.715 183.599 140.801 183.542C139.684 183.549 138.567 183.556 137.416 183.563C133.754 183.581 130.093 183.578 126.431 183.572C123.862 183.576 121.292 183.582 118.723 183.588C113.348 183.597 107.973 183.594 102.597 183.584C96.4256 183.573 90.2543 183.587 84.0825 183.614C78.0987 183.639 72.1151 183.641 66.1312 183.635C63.6073 183.634 61.0834 183.64 58.5595 183.653C24.7405 183.796 24.7405 183.796 13.8487 175.013C-2.03934 158.593 -0.0269635 134.705 0.200981 113.558C0.231478 110.471 0.248013 107.383 0.264545 104.296C0.313317 95.2463 0.406512 86.1977 0.51337 77.1487C0.547881 74.1031 0.575463 71.0574 0.603534 68.0117C0.65152 63.0666 0.716887 58.1221 0.803638 53.1775C0.83319 51.4694 0.859165 49.7612 0.881214 48.0531C1.07506 34.4404 1.84361 21.4248 11.5088 11.0132C16.6444 6.08596 21.7477 3.21345 28.5362 1.13821C29.103 0.961617 29.6699 0.785026 30.254 0.603083C33.3032 -0.0180444 36.2003 0.0108483 39.3128 0.00881397Z"/><path fill="#344DE6" d="M184.535 49.1382C184.865 49.1382 185.195 49.1382 185.535 49.1382C185.675 62.4216 185.781 75.7049 185.846 88.9889C185.877 95.1587 185.919 101.328 185.988 107.498C186.053 113.463 186.089 119.428 186.104 125.393C186.115 127.658 186.137 129.922 186.17 132.186C186.562 160.558 186.562 160.558 177.526 171.591C175.634 173.413 173.778 174.776 171.535 176.138C170.907 176.53 170.28 176.922 169.633 177.326C160.632 182.332 150.937 183.587 140.8 183.542C139.683 183.549 138.566 183.556 137.415 183.563C133.753 183.581 130.092 183.577 126.43 183.572C123.861 183.576 121.291 183.582 118.722 183.588C113.347 183.597 107.972 183.594 102.596 183.584C96.4246 183.573 90.2533 183.587 84.0815 183.614C78.0977 183.639 72.1141 183.641 66.1302 183.635C63.6063 183.634 61.0824 183.64 58.5585 183.653C24.7453 183.796 24.7453 183.796 13.8477 175.013C6.99471 167.976 4.0061 160.871 3.53516 151.138C4.52516 151.468 5.51516 151.798 6.53516 152.138C6.53516 150.818 6.53516 149.498 6.53516 148.138C7.19516 148.138 7.85516 148.138 8.53516 148.138C8.53516 147.478 8.53516 146.818 8.53516 146.138C9.50453 145.726 10.4739 145.313 11.4727 144.888C14.6578 143.489 14.6578 143.489 15.4102 140.951C15.472 140.053 15.472 140.053 15.5352 139.138C14.8752 139.138 14.2152 139.138 13.5352 139.138C13.8652 138.148 14.1952 137.158 14.5352 136.138C16.5152 136.138 18.4952 136.138 20.5352 136.138C20.3495 135.354 20.1639 134.571 19.9727 133.763C19.5352 131.138 19.5352 131.138 20.5352 129.138C22.2018 128.805 23.8685 128.472 25.5352 128.138C25.8652 127.478 26.1952 126.818 26.5352 126.138C27.8552 126.468 29.1752 126.798 30.5352 127.138C30.5352 126.478 30.5352 125.818 30.5352 125.138C31.1952 125.138 31.8552 125.138 32.5352 125.138C31.8752 122.168 31.2152 119.198 30.5352 116.138C31.1952 116.138 31.8552 116.138 32.5352 116.138C32.7427 116.732 32.9502 117.327 33.1641 117.939C39.5125 135.019 49.6161 145.044 65.5352 153.138C82.6922 160.947 101.842 161.682 119.535 155.138C131.909 150.108 142.025 144.188 148.535 132.138C147.969 132.584 147.403 133.03 146.82 133.49C143.805 135.665 140.627 137.197 137.285 138.81C135.519 139.663 133.767 140.546 132.035 141.466C119.733 147.693 106.124 148.72 92.5352 148.138C95.6246 146.079 96.9383 145.777 100.516 145.349C119.701 142.791 134.446 137.866 147.535 123.138C149.536 120.375 151.339 117.605 153.035 114.646C154.668 111.916 156.422 109.516 158.535 107.138C159.195 107.138 159.855 107.138 160.535 107.138C160.865 106.148 161.195 105.158 161.535 104.138C162.257 104.448 162.979 104.757 163.723 105.076C166.338 106.064 168.786 106.667 171.535 107.138C171.205 108.458 170.875 109.778 170.535 111.138C171.855 111.138 173.175 111.138 174.535 111.138C175.525 113.118 175.525 113.118 176.535 115.138C177.195 114.808 177.855 114.478 178.535 114.138C178.865 115.128 179.195 116.118 179.535 117.138C178.545 117.468 177.555 117.798 176.535 118.138C176.865 118.798 177.195 119.458 177.535 120.138C180.062 120.794 180.062 120.794 182.535 121.138C182.865 122.128 183.195 123.118 183.535 124.138C184.03 87.0132 184.03 87.0132 184.535 49.1382Z"/><path fill="#F4F4F3" d="M114.91 29.7007C115.667 29.7104 116.423 29.7202 117.203 29.7302C124.368 29.9588 128.605 31.2689 133.781 36.3374C139.535 42.5301 139.535 42.5301 139.535 45.1382C140.092 45.115 140.649 45.0918 141.223 45.0679C146.711 44.9381 151.264 45.6049 156.535 47.1382C156.158 49.7793 155.769 50.9191 153.793 52.771C153.089 53.2634 152.385 53.7558 151.66 54.2632C150.612 55.0095 150.612 55.0095 149.543 55.771C147.88 56.9031 146.209 58.0224 144.535 59.1382C144.15 62.2615 144.15 62.2615 144.312 65.939C144.326 66.949 144.326 66.949 144.34 67.9795C144.37 70.1371 144.42 72.2936 144.473 74.4507C144.521 76.597 144.564 78.743 144.595 80.8897C144.624 82.8455 144.669 84.8011 144.715 86.7566C144.459 91.5658 143.469 94.1551 140.16 97.6382C135.532 101.234 129.992 103.15 124.535 105.138C123.855 105.388 123.174 105.638 122.473 105.896C114.693 108.277 105.389 107.987 97.5352 106.138C98.9141 103.38 101.058 102.723 103.68 101.291C106.414 99.5925 108.366 97.5043 110.535 95.1382C109.421 95.7363 108.308 96.3344 107.16 96.9507C94.0354 103.421 81.4438 103.646 67.5352 99.1382C61.8097 96.693 56.4312 94.0089 51.5352 90.1382C53.6182 85.5357 56.7978 82.5335 60.3477 79.0132C61.0133 78.351 61.6789 77.6888 62.3647 77.0066C77.4843 62.2118 77.4843 62.2118 84.2617 60.4155C86.6364 59.3881 86.6364 59.3881 87.2485 57.4309C87.8395 55.1364 88.3207 52.8365 88.7852 50.5132C90.453 43.4604 92.1904 39.0627 98.1562 34.5483C98.9413 34.083 99.7263 33.6176 100.535 33.1382C101.447 32.589 102.358 32.0399 103.297 31.4741C107.314 29.8167 110.609 29.6393 114.91 29.7007Z"/><path fill="#F2F2F3" d="M30.5365 84.1382C31.096 84.8742 31.6554 85.6103 32.2318 86.3687C45.0217 101.738 66.4879 111.25 86.099 113.892C106.079 115.322 132.595 115.393 148.818 101.697C149.669 100.925 149.669 100.925 150.537 100.138C151.87 99.0128 153.203 97.8878 154.537 96.7632C155.527 95.8969 156.516 95.0307 157.536 94.1382C158.848 105.695 156.994 112.553 149.789 121.615C138.47 135.383 124.517 142.669 107.099 145.326C105.986 145.503 104.873 145.68 103.726 145.863C100.997 146.296 98.2676 146.721 95.5365 147.138C102.16 147.269 108.514 147.147 115.037 145.951C116.128 145.753 116.128 145.753 117.242 145.552C123.506 144.321 128.899 142.129 134.537 139.138C135.432 138.712 136.328 138.285 137.251 137.845C141.783 135.683 145.772 133.527 149.537 130.138C146.869 139.531 140.219 145.637 131.912 150.451C115.44 159.556 96.3535 163.087 77.9115 158.638C57.4701 152.394 43.9275 141.262 33.6381 122.556C32.5365 120.138 32.5365 120.138 32.5365 117.138C36.5715 118.577 39.8002 120.568 43.349 122.951C50.5977 127.626 58.2532 129.942 66.5365 132.138C67.1404 132.319 67.7442 132.5 68.3663 132.687C71.1739 133.271 73.8252 133.268 76.6928 133.271C78.4736 133.273 78.4736 133.273 80.2904 133.275C81.5266 133.271 82.7628 133.267 84.0365 133.263C85.2727 133.267 86.5089 133.271 87.7826 133.275C88.9698 133.274 90.1571 133.272 91.3803 133.271C92.465 133.27 93.5497 133.269 94.6674 133.268C97.1369 133.156 99.1834 132.855 101.537 132.138C100.954 132.099 100.371 132.059 99.7709 132.018C81.0309 130.685 64.0261 127.26 46.5365 120.138C46.5365 119.478 46.5365 118.818 46.5365 118.138C45.9448 117.858 45.3531 117.579 44.7435 117.291C37.2484 113.377 32.0239 106.753 28.5365 99.1382C27.561 93.8404 27.9708 88.9489 30.5365 84.1382Z"/></svg>